<svg width="230" height="32" viewBox="0 0 230 32" fill="none" xmlns="http://www.w3.org/2000/svg">
<path d="M11.2999 12.7003L4.70025 19.2999M4.7002 12.7002L11.2999 19.2999" stroke="#6E7191" stroke-width="1.6" stroke-linecap="round" stroke-linejoin="round"/>
<path d="M30.896 20.872H33.008V9.64H30.896V13.304H28.976V14.984H30.896V16.456H28.976V18.136H30.896V20.872ZM28.816 11.192H25.936V9.592H23.824V11.192H20.736V12.84H28.816V11.192ZM23.408 16.248C23.408 15.448 24.016 14.984 24.88 14.984C25.728 14.984 26.336 15.448 26.336 16.248C26.336 17.08 25.728 17.528 24.88 17.528C24.016 17.528 23.408 17.08 23.408 16.248ZM28.32 16.248C28.32 14.552 26.88 13.368 24.88 13.368C22.864 13.368 21.424 14.552 21.424 16.248C21.424 17.96 22.864 19.16 24.88 19.16C26.88 19.16 28.32 17.96 28.32 16.248ZM25.392 22.44V19.96H23.28V24.12H33.328V22.44H25.392ZM46.1588 9.624V15.272H44.9588V9.864H42.9908V19.4C40.8148 18.264 40.0788 15.816 40.0788 13.24V12.84H42.2868V11.128H35.6148V12.84H38.0308V13.24C38.0308 16.072 37.3268 18.68 35.1348 19.96L36.3988 21.56C37.7748 20.728 38.6388 19.352 39.1188 17.656C39.6308 19.128 40.4948 20.312 41.8068 21.016L42.9908 19.432V23.704H44.9588V17H46.1588V24.36H48.1588V9.624H46.1588ZM54.8615 10.616C52.5575 10.616 50.8135 12.136 50.8135 14.248C50.8135 16.376 52.5575 17.88 54.8615 17.88C57.1655 17.88 58.9255 16.376 58.9255 14.248C58.9255 12.136 57.1655 10.616 54.8615 10.616ZM54.8615 12.424C55.9975 12.424 56.8615 13.096 56.8615 14.248C56.8615 15.4 55.9975 16.072 54.8615 16.072C53.7255 16.072 52.8615 15.4 52.8615 14.248C52.8615 13.096 53.7255 12.424 54.8615 12.424ZM60.3015 9.624V24.408H62.4135V9.624H60.3015ZM50.4615 21.416C53.0055 21.416 56.4615 21.384 59.6295 20.744L59.5015 19.224C56.3975 19.688 52.7815 19.704 50.1895 19.704L50.4615 21.416ZM69.3333 10.488V12.168H73.8133C73.4773 14.12 71.7013 15.72 68.5333 16.584L69.3653 18.216C73.6533 17.032 76.0533 14.376 76.0533 10.488H69.3333ZM73.1733 20.136H78.7093V22.552H73.1733V20.136ZM71.0933 24.2H80.7893V18.472H71.0933V24.2ZM78.6773 9.656V13.128H76.1333V14.84H78.6773V17.864H80.7893V9.656H78.6773ZM90.612 16.232C88.66 15.416 87.876 13.8 87.876 12.168V10.456H85.844V12.168C85.844 13.848 85.044 15.672 82.98 16.584L84.1 18.232C85.46 17.64 86.356 16.6 86.9 15.352C87.412 16.44 88.26 17.32 89.492 17.832L90.612 16.232ZM85.604 20.904H93.636V24.392H95.748V19.24H85.604V20.904ZM93.748 9.64V13.224H92.596V9.864H90.628V18.504H92.596V14.92H93.748V18.584H95.748V9.64H93.748ZM113.804 9.656H111.692V17.192H113.804V9.656ZM105.356 12.168H106.908V15.144C106.396 15.176 105.868 15.192 105.356 15.208V12.168ZM110.652 14.872C110.092 14.936 109.532 14.984 108.94 15.032V12.168H110.092V10.536H102.156V12.168H103.324V15.24L101.788 15.256L101.996 16.92C104.54 16.92 107.852 16.84 110.748 16.36L110.652 14.872ZM105.948 22.632V21.752H113.804V17.784H103.836V19.4H111.708V20.248H103.852V24.264H114.22V22.632H105.948ZM119.019 16.616H123.243V14.968H119.019V12.568H123.739V10.872H116.923V21.064H118.123C120.603 21.064 122.491 21.016 124.619 20.68L124.427 18.984C122.619 19.272 121.003 19.352 119.019 19.368V16.616ZM126.507 9.624V14.824H123.979V16.52H126.507V24.408H128.619V9.624H126.507ZM146.818 9.656H144.706V18.008H146.818V9.656ZM140.418 15.112H137.41V12.184H140.418V15.112ZM142.482 10.52H135.33V16.76H142.482V10.52ZM147.058 20.36V18.792H142.946V17.592H140.802V18.792H136.674V20.36H140.754C140.53 21.384 139.058 22.504 136.114 22.76L136.77 24.328C139.25 24.12 140.978 23.256 141.874 22.12C142.77 23.24 144.482 24.12 146.93 24.328L147.602 22.76C144.69 22.52 143.218 21.336 142.994 20.36H147.058ZM160.938 13.192V14.904H163.146V18.408H165.258V9.64H163.146V13.192H160.938ZM161.818 16.36C159.578 15.624 158.554 13.896 158.49 12.216H161.354V10.52H153.434V12.216H156.33C156.266 14.056 155.194 15.928 152.858 16.744L153.93 18.408C155.642 17.832 156.81 16.632 157.45 15.144C158.09 16.44 159.194 17.48 160.794 18.008L161.818 16.36ZM160.282 22.792C158.346 22.792 157.338 22.392 157.338 21.56C157.338 20.728 158.346 20.328 160.282 20.328C162.202 20.328 163.21 20.728 163.21 21.56C163.21 22.392 162.202 22.792 160.282 22.792ZM160.282 18.728C157.146 18.728 155.226 19.768 155.226 21.56C155.226 23.352 157.146 24.392 160.282 24.392C163.402 24.392 165.322 23.352 165.322 21.56C165.322 19.768 163.402 18.728 160.282 18.728ZM177.865 17.304H179.977V9.64H177.865V11.192H175.497V12.872H177.865V13.96H175.497V15.624H177.865V17.304ZM175.193 15.16C173.545 15.384 172.153 15.416 170.313 15.432V14.376H174.649V10.296H168.201V11.896H172.569V12.872H168.217V17.048H169.337C171.737 17.048 173.369 17.032 175.337 16.76L175.193 15.16ZM172.249 22.696V21.784H179.977V17.864H170.137V19.448H177.897V20.328H170.169V24.296H180.409V22.696H172.249ZM191.697 12.792H194.737V11.048H186.481V12.792H189.553V13.608C189.553 16.12 188.353 18.824 185.889 19.928L187.089 21.608C188.817 20.824 190.001 19.208 190.657 17.288C191.313 19.064 192.481 20.504 194.193 21.24L195.345 19.576C192.881 18.552 191.697 16.008 191.697 13.608V12.792ZM196.097 9.64V24.376H198.209V9.64H196.097ZM207.359 11.816C209.279 11.816 210.511 12.392 210.511 13.448C210.511 14.52 209.279 15.096 207.359 15.096C205.423 15.096 204.191 14.52 204.191 13.448C204.191 12.392 205.423 11.816 207.359 11.816ZM207.359 16.776C210.495 16.776 212.687 15.48 212.687 13.448C212.687 11.448 210.495 10.136 207.359 10.136C204.207 10.136 202.031 11.448 202.031 13.448C202.031 15.48 204.207 16.776 207.359 16.776ZM214.063 17.88H200.719V19.576H206.287V24.392H208.399V19.576H214.063V17.88ZM216.254 11.16V12.84H221.166C220.862 16.104 219.23 18.408 215.47 20.216L216.574 21.88C221.806 19.352 223.326 15.672 223.326 11.16H216.254ZM225.582 9.624V24.36H227.71V9.624H225.582Z" fill="#6E7191"/>
</svg>
